<?xml version="1.0" encoding="UTF-8"?>
<svg id="Calque_1" xmlns="http://www.w3.org/2000/svg" viewBox="0 0 565 586">
  <defs>
    <style>
      .cls-1 {
        fill: #524f97;
      }

      .cls-2 {
        fill: #fff;
      }
    </style>
  </defs>
  <path class="cls-2" d="M463.14,577.09v-34.18c0-21.34,7.18-38.8,29.72-38.8s31.55,17.76,31.55,38.21v11.49h30.43v23.28h-91.7ZM507.09,543.66c0-11.49-5.07-16.86-14.23-16.86s-12.4,6.12-12.4,17.46v9.55h26.62v-10.15Z"/>
  <path class="cls-2" d="M463.14,495.81v-61.49h18.31v38.21h17.18v-32.68h18.31v32.68h19.58v-39.7h18.31v62.98h-91.7Z"/>
  <path class="cls-2" d="M509.62,431.19c-30.57,0-48.17-21.79-48.17-47.76,0-14.18,7.84-26.78,14.46-33.5l11.39,13.3c-4.09,4.78-6.97,11.24-6.97,19.45,0,14.33,10.71,24.77,28.45,24.77s28.88-8.81,28.88-26.86c0-3.43-.85-7.16-2.39-9.25h-14.79v15.52h-9.12l-8.77-10.33v-25.78h42.82c6.2,6.72,11.13,18.66,11.13,32.39,0,26.86-15.92,48.05-46.91,48.05Z"/>
  <circle class="cls-1" cx="535.45" cy="318.17" r="21.07"/>
</svg>