<?xml version="1.0" encoding="utf-8"?>
<!-- Generator: Adobe Illustrator 26.4.1, SVG Export Plug-In . SVG Version: 6.00 Build 0)  -->
<svg version="1.1" baseProfile="tiny" id="Layer_1" xmlns="http://www.w3.org/2000/svg" xmlns:xlink="http://www.w3.org/1999/xlink"
	 x="0px" y="0px" viewBox="0 0 400 166" overflow="visible" xml:space="preserve">
<g>
	<polygon fill="#FF625F" points="141.1,8.5 141.1,156.6 251.3,156.6 251.3,124.7 174.3,124.7 174.3,97.3 224.1,97.3 224.1,64.7
		175.4,64.7 175.4,39.2 250,39.2 250,8.5 	"/>
	<path fill="#FF625F" d="M384,80.3c-0.4-10-2.7-19.5-6.7-28.1L347,61.1l-41.4,12.2l9,27.4l37.9-11.1c-3.2,21.2-21.9,37.5-44.5,37.5
		c-24.9,0-45-19.7-45-44.1s20.2-44.1,45-44.1c9.5,0,18.4,2.9,25.7,7.9l21-22.7c-12.9-9.8-29.1-15.6-46.6-15.6
		c-42,0-76.1,33.4-76.1,74.5s34.1,74.5,76.1,74.5S384,124.1,384,83C384,82.1,384,81.2,384,80.3z"/>
	<g>
		<path fill="#FF625F" d="M141.2,59.2c0,27.9-22.7,50.6-50.6,50.6H67.9v43.3c-2.1-1.6-34.3-26.3-34.3-48.2c0-16.9,17.3-28,31.4-33.1
			v9.6l-12.9,9h23.4l5.2-19.5c40.4-6.4,38.1-32.3,38.1-32.3S93.9,24.8,70.1,51.7l-12.8-7.8L38.4,61.5l16.1-4.3l6.4,5.1
			c-5.1,1.5-15.6,5-27.3,12.1V8.6h57c14,0,26.6,5.7,35.8,14.8C135.6,32.6,141.2,45.2,141.2,59.2z"/>
		<path fill="#FF625F" d="M93.7,43.9c-4.4,0-7.9,3.6-7.9,7.9s3.6,7.9,7.9,7.9s7.9-3.6,7.9-7.9S98.1,43.9,93.7,43.9z M93.7,57.2
			c-0.1,0-0.3,0-0.4,0c2.2-0.7,3.8-2.8,3.8-5.3c0-2.5-1.6-4.7-3.8-5.3c0.1,0,0.3,0,0.4,0c3,0,5.4,2.4,5.4,5.4
			C99.1,54.8,96.7,57.2,93.7,57.2z"/>
		<path fill="#FF625F" d="M37.4,81c0,0-38.6,28.9,19.5,75.7H38.4C38.4,156.6-11.3,111.2,37.4,81z"/>
	</g>
</g>
</svg>
