<?xml version="1.0" encoding="utf-8"?>
<!-- Generator: Adobe Illustrator 26.4.1, SVG Export Plug-In . SVG Version: 6.00 Build 0)  -->
<svg version="1.1" id="Layer_1" xmlns="http://www.w3.org/2000/svg" xmlns:xlink="http://www.w3.org/1999/xlink" x="0px" y="0px"
	 viewBox="0 0 120 123.8" style="enable-background:new 0 0 120 123.8;" xml:space="preserve">
<style type="text/css">
	.st0{opacity:0.12;}
	.st1{fill:#FF625F;}
</style>
<g class="st0">
	<path class="st1" d="M98.3,19c0-2.5-1.6-4.7-3.8-5.3h0.4c3,0,5.4,2.4,5.4,5.4c0,2.8-2.4,5.2-5.4,5.2h-0.4
		C96.7,23.6,98.3,21.5,98.3,19z"/>
	<path class="st1" d="M73.3,123.8c-2.1-1.6-38.5-29.9-38.5-51.8c0-16.9,17.3-28,31.4-33.1v9.6l-12.9,9h23.4L81.9,38
		C122.3,31.6,120,5.7,120,5.7S95.1-8.1,71.3,18.8L58.5,11L39.6,28.6l16.1-4.3l6.4,5.1c-5.1,1.5-15.6,5-27.3,12.1l0,0l0,0
		C10.1,54.9-1.5,83.9,7,110.7l4.2,13.1h28.4c0-0.1-49.7-45.5-1-75.7c-1.3,1-37.5,29.7,19.5,75.7C58.1,123.8,73.3,123.8,73.3,123.8z
		 M94.9,11c4.4,0,7.9,3.6,7.9,7.9s-3.6,7.9-7.9,7.9S87,23.2,87,18.9S90.5,11,94.9,11z"/>
</g>
<g>
	<polygon class="st1" points="100.3,108.7 118.6,108.7 118.6,95.1 114.6,95.1 114.6,104.6 111.3,104.6 111.3,98.4 107.2,98.4 
		107.2,104.4 104.1,104.4 104.1,95.2 100.3,95.2 	"/>
	<path class="st1" d="M109.2,78.7c-1.2,0-2.4,0.3-3.5,0.8l1.1,3.7l1.5,5.1l3.4-1.1l-1.4-4.7c2.6,0.4,4.6,2.7,4.6,5.5
		c0,3.1-2.4,5.6-5.4,5.6s-5.4-2.5-5.4-5.6c0-1.2,0.4-2.3,1-3.2l-2.8-2.6c-1.2,1.6-1.9,3.6-1.9,5.8c0,5.2,4.1,9.4,9.2,9.4
		s9.2-4.2,9.2-9.4c0-5.2-4.1-9.4-9.2-9.4C109.4,78.7,109.3,78.7,109.2,78.7z"/>
	<g>
		<path class="st1" d="M106.6,108.6c3.4,0,6.2,2.8,6.2,6.2v2.8h5.3c-0.2,0.3-3.2,4.2-6,4.2c-2.1,0-3.5-2.1-4.1-3.9h1.2l1.1,1.6v-2.9
			l-2.4-0.6c-0.8-5-4-4.7-4-4.7s-1.7,3.1,1.6,6l-1,1.6l2.2,2.3l-0.5-2l0.6-0.8c0.2,0.6,0.6,1.9,1.5,3.4h-8.1v-7
			c0-1.7,0.7-3.3,1.8-4.4C103.3,109.3,104.8,108.6,106.6,108.6z"/>
		<path class="st1" d="M104.7,114.5c0,0.5,0.4,1,1,1c0.5,0,1-0.4,1-1c0-0.5-0.4-1-1-1C105.1,113.5,104.7,114,104.7,114.5z
			 M106.3,114.5C106.3,114.5,106.3,114.5,106.3,114.5c-0.1-0.2-0.3-0.4-0.7-0.4c-0.3,0-0.6,0.2-0.7,0.5c0,0,0,0,0,0
			c0-0.4,0.3-0.7,0.7-0.7C106,113.8,106.3,114.1,106.3,114.5z"/>
		<path class="st1" d="M109.3,121.5c0,0,3.6,4.8,9.3-2.4v2.3C118.6,121.3,113,127.5,109.3,121.5z"/>
	</g>
</g>
</svg>
