<?xml version="1.0" encoding="UTF-8"?>
<svg xmlns="http://www.w3.org/2000/svg" version="1.1" viewBox="0 0 565 586">
  <defs>
    <style>
      .cls-1 {
        fill: #fff;
      }

      .cls-2 {
        fill: #db6b67;
      }
    </style>
  </defs>
  <!-- Generator: Adobe Illustrator 28.7.10, SVG Export Plug-In . SVG Version: 1.2.0 Build 236)  -->
  <g>
    <g id="Calque_1">
      <g>
        <path class="cls-1" d="M463.1,577.1v-34.2c0-21.3,7.2-38.8,29.7-38.8s31.6,17.8,31.6,38.2v11.5h30.4v23.3h-91.7ZM507.1,543.7c0-11.5-5.1-16.9-14.2-16.9s-12.4,6.1-12.4,17.5v9.6h26.6v-10.1Z"/>
        <path class="cls-1" d="M463.1,495.8v-61.5h18.3v38.2h17.2v-32.7h18.3v32.7h19.6v-39.7h18.3v63h-91.7Z"/>
        <path class="cls-1" d="M509.6,431.2c-30.6,0-48.2-21.8-48.2-47.8s7.8-26.8,14.5-33.5l11.4,13.3c-4.1,4.8-7,11.2-7,19.5,0,14.3,10.7,24.8,28.5,24.8s28.9-8.8,28.9-26.9-.8-7.2-2.4-9.3h-14.8v15.5h-9.1l-8.8-10.3v-25.8h42.8c6.2,6.7,11.1,18.7,11.1,32.4,0,26.9-15.9,48.1-46.9,48.1Z"/>
        <circle class="cls-2" cx="535.5" cy="318.2" r="21.1"/>
      </g>
    </g>
  </g>
</svg>