<?xml version="1.0" encoding="UTF-8"?>
<svg xmlns="http://www.w3.org/2000/svg" version="1.1" viewBox="0 0 1130 467">
  <defs>
    <style>
      .cls-1 {
        fill: #fff;
      }

      .cls-2 {
        fill: #db6b67;
      }
    </style>
  </defs>
  <!-- Generator: Adobe Illustrator 28.7.10, SVG Export Plug-In . SVG Version: 1.2.0 Build 236)  -->
  <g>
    <g id="Calque_1">
      <g>
        <path class="cls-1" d="M20.2,50h133c83.1,0,151,28,151,115.7s-69.1,122.8-148.7,122.8h-44.7v118.4H20.2V50ZM150.3,221.1c44.7,0,65.6-19.7,65.6-55.4s-23.8-48.2-68-48.2h-37.2v103.6h39.5Z"/>
        <path class="cls-1" d="M336.5,50h239.3v71.3h-148.7v66.9h127.2v71.3h-127.2v76.2h154.5v71.3h-245.1V50Z"/>
        <path class="cls-1" d="M587.9,230.9c0-119,84.8-187.5,185.9-187.5s104.2,30.5,130.4,56.3l-51.8,44.3c-18.6-15.9-43.8-27.1-75.7-27.1-55.8,0-96.4,41.7-96.4,110.7s34.3,112.4,104.5,112.4,27.9-3.3,36-9.3v-57.6h-60.4v-35.5l40.2-34.1h100.3v166.7c-26.1,24.1-72.6,43.3-126,43.3-104.5,0-187-61.9-187-182.5Z"/>
        <circle class="cls-2" cx="1027.8" cy="331.5" r="82"/>
      </g>
    </g>
  </g>
</svg>